<svg xmlns="http://www.w3.org/2000/svg" viewBox="0 0 1777.842 419.149">
  <g fill="#fff">
    <path data-name="Path 1" d="M143.661 93.484H0v31.722a25.129 25.129 0 0 0 25.129 25.129H144.19c57.965 0 105.931 46.385 106.389 104.349a105.21 105.21 0 0 1-105.2 106.07H25.13A25.129 25.129 0 0 0 .001 385.883v31.722h145.377a162.061 162.061 0 0 0 162.053-161.3c.408-89.554-74.218-162.821-163.77-162.821Z"/>
    <path data-name="Path 2" d="M642.462 361.827H362.297v54.71h305.52v-29.354a25.35 25.35 0 0 0-25.355-25.356Z"/>
    <path data-name="Path 3" d="M663.398 125.769V98.341h-301.1v54.71h273.819a27.277 27.277 0 0 0 27.281-27.282Z"/>
    <path data-name="Path 4" d="M636.642 259.252v-30.174H362.297v54.706H612.11a24.532 24.532 0 0 0 24.532-24.532Z"/>
    <path data-name="Path 5" d="M956.763 125.223v83.456h-175v-83.456c0-15.842-11.674-28.683-26.073-28.683h-32.069v320.789h31.388a26.757 26.757 0 0 0 26.756-26.756V266.825h175v123.748a26.757 26.757 0 0 0 26.756 26.756h31.388V96.54h-32.071c-14.397 0-26.075 12.841-26.075 28.683Z"/>
    <path data-name="Path 6" d="M1740.643 249.661a93.77 93.77 0 0 0 19.778-57.346c.27-52.275-43.51-95.046-95.787-95.046h-216.383v30.046a26.8 26.8 0 0 0 26.8 26.8h190.079c20.68 0 38.078 16.343 38.433 37.022a37.714 37.714 0 0 1-37.665 38.373h-217.647v30.046a26.8 26.8 0 0 0 26.8 26.8h207.489c21.019 0 38.552 16.875 38.449 37.891a37.466 37.466 0 0 1-11.543 26.957 38.592 38.592 0 0 1-26.854 10.55h-207.537a26.8 26.8 0 0 0-26.8 26.8V418.6h233.972a95.919 95.919 0 0 0 67.887-27.653 93.934 93.934 0 0 0 27.732-67.1c-.07-30.017-14.77-56.878-37.203-74.186Z"/>
    <path data-name="Path 7" d="M1188.848 354.419a103.735 103.735 0 0 1-58.754-93.39v-137.7a26.791 26.791 0 0 0-26.792-26.792h-30.059v164.49a160.437 160.437 0 0 0 131.013 157.69v-40.053a26.936 26.936 0 0 0-15.408-24.245Z"/>
    <path data-name="Path 8" d="M1337.116 123.331v137.7a103.641 103.641 0 0 1-60.732 94.246 26.937 26.937 0 0 0-15.962 24.446v39.428c75.7-12.8 133.545-78.839 133.545-158.118V96.541h-30.06a26.788 26.788 0 0 0-26.791 26.79Z"/>
    <path data-name="Path 9" d="M1263.538 1.39a1.389 1.389 0 0 0-1.389-1.389h-30.3a25.158 25.158 0 0 0-25.159 25.159v187.73a1.389 1.389 0 0 0 1.389 1.389h31.438a24.025 24.025 0 0 0 24.025-24.025V1.39Z"/>
  </g>
</svg>
